<?xml version="1.0" encoding="iso-8859-1"?>
<!-- Generator: Adobe Illustrator 19.0.0, SVG Export Plug-In . SVG Version: 6.00 Build 0)  -->
<svg version="1.1" id="Capa_1" xmlns="http://www.w3.org/2000/svg" xmlns:xlink="http://www.w3.org/1999/xlink" x="0px" y="0px"
	 viewBox="0 0 512 512" style="enable-background:new 0 0 512 512;" xml:space="preserve">
<g>
	<g>
		<g>
			<path d="M510.625,302.781L475.313,181c-4.979-18.646-21.917-31.667-41.229-31.667H74.667c-3.229,0-6.292,1.469-8.313,3.99
				c-0.405,0.503-61.958,113.198-61.958,113.198C1.521,271.813,0,277.802,0,283.833C0,303.771,16.229,320,36.167,320h63.131
				l2.056,9.25c4.375,19.677,21.5,33.417,41.646,33.417c0.125,0,0.229,0,0.354-0.01L473.042,352
				C494.521,352,512,334.521,512,313.042C512,309.594,511.542,306.198,510.625,302.781z M36.167,298.667
				c-8.188,0-14.833-6.656-14.833-14.833c0-2.479,0.625-4.938,1.792-7.104l47.289-86.684l24.142,108.621H36.167z M472.688,330.677
				l-329.833,10.656c-10.021-0.073-18.5-6.917-20.667-16.708L87.958,170.667h346.125c9.646,0,18.125,6.51,20.667,16.052
				l35.333,121.833c0.396,1.427,0.583,2.938,0.583,4.49C490.667,322.76,482.75,330.667,472.688,330.677z"/>
			<path d="M393.875,226.021l-211.521,6.615c-5.896,0.177-10.521,5.104-10.333,10.99c0.188,5.771,4.917,10.333,10.667,10.333
				c0.104,0,0.229,0,0.333,0l211.521-6.625c5.896-0.177,10.521-5.104,10.333-10.99C404.688,230.469,399.938,225.438,393.875,226.021
				z"/>
			<path d="M362.313,270.344l-148.458,4.625c-5.896,0.188-10.521,5.115-10.333,11c0.188,5.771,4.917,10.333,10.667,10.333
				c0.104,0,0.229,0,0.333-0.01l148.458-4.625c5.896-0.188,10.521-5.115,10.333-11C373.125,274.792,368.333,269.927,362.313,270.344
				z"/>
		</g>
	</g>
</g>
<g>
</g>
<g>
</g>
<g>
</g>
<g>
</g>
<g>
</g>
<g>
</g>
<g>
</g>
<g>
</g>
<g>
</g>
<g>
</g>
<g>
</g>
<g>
</g>
<g>
</g>
<g>
</g>
<g>
</g>
</svg>
